<svg id="Capa_1" enable-background="new 0 0 510 510" height="512" viewBox="0 0 510 510" width="512"
	xmlns="http://www.w3.org/2000/svg">
	<g>
		<g>
			<path d="m228.4 397.2c29.9 29.9 71.1 48.4 116.6 48.4l10-165-10-165c-45.5 0-86.7 18.5-116.6 48.4-64.5 64.5-64.6 168.7 0 233.2z" fill="#0a617d"/>
			<path d="m90 505.6c-15 0-30 0-45 0 0-10.9 0-79 0-90l22.5-10 22.5 10 10 45z" fill="#0a617d"/>
			<path d="m44.3 385.6 22.8 10 22.8-10 10.1-190.6-10-190.6c-7.3 7.3-52.9 52.9-60.3 60.3.8 17.8 13.8 303.1 14.6 320.9z" fill="#fff7f4"/>
			<path d="m345 115.6v165 165c91 0 165-74 165-165s-74-165-165-165z" fill="#08475e"/>
			<path d="m135 505.6c-15 0-30 0-45 0 0-10.9 0-79 0-90l22.5-10 22.5 10z" fill="#08475e"/>
			<path d="m408.6 238.2c-7.4-7.4-13.8-13.8-21.2-21.2 7.4-7.4 13.8-13.8 21.2-21.2 7.4 7.4 13.8 13.8 21.2 21.2-7.4 7.4-13.7 13.8-21.2 21.2z" fill="#fdb504"/>
			<path d="m408.6 365.5c-7.4-7.4-13.8-13.8-21.2-21.2l21.2-21.2 21.2 21.2c-7.4 7.4-13.7 13.7-21.2 21.2z" fill="#fdb504"/>
			<g fill="#ffda2d">
				<path d="m281.4 365.5c-7.4-7.4-13.8-13.8-21.2-21.2l21.2-21.2 21.2 21.2c-7.4 7.4-13.8 13.7-21.2 21.2z"/>
				<path d="m281.4 238.2c-7.4-7.4-13.8-13.8-21.2-21.2 7.4-7.4 13.8-13.8 21.2-21.2 7.4 7.4 13.8 13.8 21.2 21.2-7.4 7.4-13.8 13.8-21.2 21.2z"/>
				<path d="m300 280.6c0 24.8 20.2 45 45 45l10-45-10-45c-24.8 0-45 20.2-45 45z"/>
				<path d="m330 205.6h15l10-15-10-15c-5.2 0-9.8 0-15 0z"/>
				<path d="m330 385.6h15l10-15-10-15c-5.2 0-9.8 0-15 0z"/>
			</g>
			<path d="m360 175.6c-5.2 0-9.8 0-15 0v30h15c0-10.5 0-19.5 0-30z" fill="#fdb504"/>
			<path d="m360 355.6c-5.2 0-9.8 0-15 0v30h15c0-10.5 0-19.5 0-30z" fill="#fdb504"/>
			<path d="m0 385.6v30h90l10-15-10-15c-58.5 0-39.3 0-90 0z" fill="#ffda2d"/>
			<path d="m135.7 385.6c.8-17.8 13.8-303.1 14.6-320.9-7.3-7.4-53-53-60.3-60.3v381.2l22.8 10z" fill="#f0e6e6"/>
			<path d="m180 385.6c-10.8 0-78.8 0-90 0v30h90c0-10.5 0-19.5 0-30z" fill="#fdb504"/>
			<path d="m390 280.6c0-24.8-20.2-45-45-45v45 45c24.8 0 45-20.2 45-45z" fill="#fdb504"/>
		</g>
		<path d="m420 265.6h30v30h-30z" fill="#fdb504"/>
		<path d="m240 265.6h30v30h-30z" fill="#ffda2d"/>
	</g>
</svg>