<svg id="Capa_1" viewBox="180 116 330 330"
	xmlns="http://www.w3.org/2000/svg">
	<g>
		<!-- <path d="m0 415.606h45v90h90v-90h45v-30h-180z"/> -->
		<circle id="CheckIt2" cx="345" cy="280.606" r="15" />
		<path id="CheckIt" d="M345 115.606c-90.981 0-165 74.019-165 165s74.019 165 165 165 165-74.019 165-165-74.019-165-165-165zm63.64 80.148 21.213 21.213-21.213 21.213-21.213-21.213zm-78.64-20.148h30v30h-30zm-48.64 20.148 21.213 21.213-21.213 21.213-21.213-21.213zm-41.36 69.852h30v30h-30zm41.36 99.853-21.213-21.213 21.213-21.213 21.213 21.213zm78.64 20.147h-30v-30h30zm-15-60c-24.814 0-45-20.187-45-45s20.186-45 45-45 45 20.187 45 45c0 24.814-20.186 45-45 45zm63.64 39.853-21.213-21.213 21.213-21.213 21.213 21.213zm41.36-69.853h-30v-30h30z" />
		<!-- <path d="m137.061 355.606 13.224-290.927-60.285-60.285-60.285 60.285 13.224 290.927z"/> -->
	</g>
</svg>